<?xml version="1.0" encoding="UTF-8" standalone="no"?>
<!DOCTYPE svg PUBLIC "-//W3C//DTD SVG 1.1//EN"
 "http://www.w3.org/Graphics/SVG/1.1/DTD/svg11.dtd">
<!-- Generated by graphviz version 2.40.1 (20161225.0304)
 -->
<!-- Title: controllers_diagram Pages: 1 -->
<svg width="912pt" height="882pt"
 viewBox="0.00 0.00 912.00 882.00" xmlns="http://www.w3.org/2000/svg" xmlns:xlink="http://www.w3.org/1999/xlink">
<g id="graph0" class="graph" transform="scale(1 1) rotate(0) translate(4 878)">
<title>controllers_diagram</title>
<polygon fill="transparent" stroke="transparent" points="-4,4 -4,-878 908,-878 908,4 -4,4"/>
<!-- _diagram_info -->
<g id="node1" class="node">
<title>_diagram_info</title>
<text text-anchor="start" x="580" y="-481.6" font-family="Times,serif" font-size="13.00" fill="#000000">Controllers diagram</text>
<text text-anchor="start" x="580" y="-467.6" font-family="Times,serif" font-size="13.00" fill="#000000">Date: Dec 16 2020 &#45; 00:39</text>
<text text-anchor="start" x="580" y="-453.6" font-family="Times,serif" font-size="13.00" fill="#000000">Migration version: 20201209001115</text>
<text text-anchor="start" x="580" y="-439.6" font-family="Times,serif" font-size="13.00" fill="#000000">Generated by RailRoady 1.5.3</text>
<text text-anchor="start" x="580" y="-425.6" font-family="Times,serif" font-size="13.00" fill="#000000">http://railroady.prestonlee.com</text>
</g>
<!-- AdminsController -->
<g id="node2" class="node">
<title>AdminsController</title>
<path fill="none" stroke="#000000" d="M100,-660.5C100,-660.5 220,-660.5 220,-660.5 226,-660.5 232,-666.5 232,-672.5 232,-672.5 232,-861.5 232,-861.5 232,-867.5 226,-873.5 220,-873.5 220,-873.5 100,-873.5 100,-873.5 94,-873.5 88,-867.5 88,-861.5 88,-861.5 88,-672.5 88,-672.5 88,-666.5 94,-660.5 100,-660.5"/>
<text text-anchor="middle" x="160" y="-858.3" font-family="Times,serif" font-size="14.00" fill="#000000">AdminsController</text>
<polyline fill="none" stroke="#000000" points="88,-850.5 232,-850.5 "/>
<text text-anchor="start" x="96" y="-835.3" font-family="Times,serif" font-size="14.00" fill="#000000">create</text>
<text text-anchor="start" x="96" y="-820.3" font-family="Times,serif" font-size="14.00" fill="#000000">delete</text>
<text text-anchor="start" x="96" y="-805.3" font-family="Times,serif" font-size="14.00" fill="#000000">destroy</text>
<text text-anchor="start" x="96" y="-790.3" font-family="Times,serif" font-size="14.00" fill="#000000">edit</text>
<text text-anchor="start" x="96" y="-775.3" font-family="Times,serif" font-size="14.00" fill="#000000">index</text>
<text text-anchor="start" x="96" y="-760.3" font-family="Times,serif" font-size="14.00" fill="#000000">new</text>
<text text-anchor="start" x="96" y="-745.3" font-family="Times,serif" font-size="14.00" fill="#000000">show</text>
<text text-anchor="start" x="96" y="-730.3" font-family="Times,serif" font-size="14.00" fill="#000000">update</text>
<polyline fill="none" stroke="#000000" points="88,-722.5 232,-722.5 "/>
<polyline fill="none" stroke="#000000" points="88,-698.5 232,-698.5 "/>
<text text-anchor="start" x="96" y="-683.3" font-family="Times,serif" font-size="14.00" fill="#000000">_layout</text>
<text text-anchor="start" x="96" y="-668.3" font-family="Times,serif" font-size="14.00" fill="#000000">admin_params</text>
</g>
<!-- ApplicationController -->
<g id="node3" class="node">
<title>ApplicationController</title>
<path fill="none" stroke="#000000" d="M364,-132.5C364,-132.5 512,-132.5 512,-132.5 518,-132.5 524,-138.5 524,-144.5 524,-144.5 524,-214.5 524,-214.5 524,-220.5 518,-226.5 512,-226.5 512,-226.5 364,-226.5 364,-226.5 358,-226.5 352,-220.5 352,-214.5 352,-214.5 352,-144.5 352,-144.5 352,-138.5 358,-132.5 364,-132.5"/>
<text text-anchor="middle" x="438" y="-211.3" font-family="Times,serif" font-size="14.00" fill="#000000">ApplicationController</text>
<polyline fill="none" stroke="#000000" points="352,-203.5 524,-203.5 "/>
<polyline fill="none" stroke="#000000" points="352,-179.5 524,-179.5 "/>
<polyline fill="none" stroke="#000000" points="352,-155.5 524,-155.5 "/>
<text text-anchor="start" x="360" y="-140.3" font-family="Times,serif" font-size="14.00" fill="#000000">_layout</text>
</g>
<!-- BankAccountsController -->
<g id="node4" class="node">
<title>BankAccountsController</title>
<path fill="none" stroke="#000000" d="M276,-550.5C276,-550.5 446,-550.5 446,-550.5 452,-550.5 458,-556.5 458,-562.5 458,-562.5 458,-811.5 458,-811.5 458,-817.5 452,-823.5 446,-823.5 446,-823.5 276,-823.5 276,-823.5 270,-823.5 264,-817.5 264,-811.5 264,-811.5 264,-562.5 264,-562.5 264,-556.5 270,-550.5 276,-550.5"/>
<text text-anchor="middle" x="361" y="-808.3" font-family="Times,serif" font-size="14.00" fill="#000000">BankAccountsController</text>
<polyline fill="none" stroke="#000000" points="264,-800.5 458,-800.5 "/>
<text text-anchor="start" x="272" y="-785.3" font-family="Times,serif" font-size="14.00" fill="#000000">create</text>
<text text-anchor="start" x="272" y="-770.3" font-family="Times,serif" font-size="14.00" fill="#000000">destroy</text>
<text text-anchor="start" x="272" y="-755.3" font-family="Times,serif" font-size="14.00" fill="#000000">edit</text>
<text text-anchor="start" x="272" y="-740.3" font-family="Times,serif" font-size="14.00" fill="#000000">index</text>
<text text-anchor="start" x="272" y="-725.3" font-family="Times,serif" font-size="14.00" fill="#000000">new</text>
<text text-anchor="start" x="272" y="-710.3" font-family="Times,serif" font-size="14.00" fill="#000000">payment</text>
<text text-anchor="start" x="272" y="-695.3" font-family="Times,serif" font-size="14.00" fill="#000000">send_payment</text>
<text text-anchor="start" x="272" y="-680.3" font-family="Times,serif" font-size="14.00" fill="#000000">show</text>
<text text-anchor="start" x="272" y="-665.3" font-family="Times,serif" font-size="14.00" fill="#000000">statement</text>
<text text-anchor="start" x="272" y="-650.3" font-family="Times,serif" font-size="14.00" fill="#000000">transfer</text>
<text text-anchor="start" x="272" y="-635.3" font-family="Times,serif" font-size="14.00" fill="#000000">transfer_money</text>
<text text-anchor="start" x="272" y="-620.3" font-family="Times,serif" font-size="14.00" fill="#000000">update</text>
<polyline fill="none" stroke="#000000" points="264,-612.5 458,-612.5 "/>
<polyline fill="none" stroke="#000000" points="264,-588.5 458,-588.5 "/>
<text text-anchor="start" x="272" y="-573.3" font-family="Times,serif" font-size="14.00" fill="#000000">_layout</text>
<text text-anchor="start" x="272" y="-558.3" font-family="Times,serif" font-size="14.00" fill="#000000">set_bank_account</text>
</g>
<!-- CurrenciesController -->
<g id="node5" class="node">
<title>CurrenciesController</title>
<path fill="none" stroke="#000000" d="M518,-550.5C518,-550.5 826,-550.5 826,-550.5 832,-550.5 838,-556.5 838,-562.5 838,-562.5 838,-766.5 838,-766.5 838,-772.5 832,-778.5 826,-778.5 826,-778.5 518,-778.5 518,-778.5 512,-778.5 506,-772.5 506,-766.5 506,-766.5 506,-562.5 506,-562.5 506,-556.5 512,-550.5 518,-550.5"/>
<text text-anchor="middle" x="672" y="-763.3" font-family="Times,serif" font-size="14.00" fill="#000000">CurrenciesController</text>
<polyline fill="none" stroke="#000000" points="506,-755.5 838,-755.5 "/>
<text text-anchor="start" x="514" y="-740.3" font-family="Times,serif" font-size="14.00" fill="#000000">create</text>
<text text-anchor="start" x="514" y="-725.3" font-family="Times,serif" font-size="14.00" fill="#000000">delete</text>
<text text-anchor="start" x="514" y="-710.3" font-family="Times,serif" font-size="14.00" fill="#000000">destroy</text>
<text text-anchor="start" x="514" y="-695.3" font-family="Times,serif" font-size="14.00" fill="#000000">edit</text>
<text text-anchor="start" x="514" y="-680.3" font-family="Times,serif" font-size="14.00" fill="#000000">index</text>
<text text-anchor="start" x="514" y="-665.3" font-family="Times,serif" font-size="14.00" fill="#000000">new</text>
<text text-anchor="start" x="514" y="-650.3" font-family="Times,serif" font-size="14.00" fill="#000000">show</text>
<text text-anchor="start" x="514" y="-635.3" font-family="Times,serif" font-size="14.00" fill="#000000">update</text>
<polyline fill="none" stroke="#000000" points="506,-627.5 838,-627.5 "/>
<polyline fill="none" stroke="#000000" points="506,-603.5 838,-603.5 "/>
<text text-anchor="start" x="514" y="-588.3" font-family="Times,serif" font-size="14.00" fill="#000000">_layout</text>
<text text-anchor="start" x="514" y="-573.3" font-family="Times,serif" font-size="14.00" fill="#000000">currency_params</text>
<text text-anchor="start" x="514" y="-558.3" font-family="Times,serif" font-size="14.00" fill="#000000">redirect_to_root_if_not_logged_in_as_admin</text>
</g>
<!-- ExtrasController -->
<g id="node6" class="node">
<title>ExtrasController</title>
<path fill="none" stroke="#000000" d="M12,-396.5C12,-396.5 125,-396.5 125,-396.5 131,-396.5 137,-402.5 137,-408.5 137,-408.5 137,-537.5 137,-537.5 137,-543.5 131,-549.5 125,-549.5 125,-549.5 12,-549.5 12,-549.5 6,-549.5 0,-543.5 0,-537.5 0,-537.5 0,-408.5 0,-408.5 0,-402.5 6,-396.5 12,-396.5"/>
<text text-anchor="middle" x="68.5" y="-534.3" font-family="Times,serif" font-size="14.00" fill="#000000">ExtrasController</text>
<polyline fill="none" stroke="#000000" points="0,-526.5 137,-526.5 "/>
<text text-anchor="start" x="8" y="-511.3" font-family="Times,serif" font-size="14.00" fill="#000000">contact_us</text>
<text text-anchor="start" x="8" y="-496.3" font-family="Times,serif" font-size="14.00" fill="#000000">landing</text>
<text text-anchor="start" x="8" y="-481.3" font-family="Times,serif" font-size="14.00" fill="#000000">loan</text>
<text text-anchor="start" x="8" y="-466.3" font-family="Times,serif" font-size="14.00" fill="#000000">offer</text>
<text text-anchor="start" x="8" y="-451.3" font-family="Times,serif" font-size="14.00" fill="#000000">savings</text>
<polyline fill="none" stroke="#000000" points="0,-443.5 137,-443.5 "/>
<polyline fill="none" stroke="#000000" points="0,-419.5 137,-419.5 "/>
<text text-anchor="start" x="8" y="-404.3" font-family="Times,serif" font-size="14.00" fill="#000000">_layout</text>
</g>
<!-- PagesController -->
<g id="node7" class="node">
<title>PagesController</title>
<path fill="none" stroke="#000000" d="M584,-.5C584,-.5 692,-.5 692,-.5 698,-.5 704,-6.5 704,-12.5 704,-12.5 704,-111.5 704,-111.5 704,-117.5 698,-123.5 692,-123.5 692,-123.5 584,-123.5 584,-123.5 578,-123.5 572,-117.5 572,-111.5 572,-111.5 572,-12.5 572,-12.5 572,-6.5 578,-.5 584,-.5"/>
<text text-anchor="middle" x="638" y="-108.3" font-family="Times,serif" font-size="14.00" fill="#000000">PagesController</text>
<polyline fill="none" stroke="#000000" points="572,-100.5 704,-100.5 "/>
<text text-anchor="start" x="580" y="-85.3" font-family="Times,serif" font-size="14.00" fill="#000000">account</text>
<text text-anchor="start" x="580" y="-70.3" font-family="Times,serif" font-size="14.00" fill="#000000">admin</text>
<text text-anchor="start" x="580" y="-55.3" font-family="Times,serif" font-size="14.00" fill="#000000">admin_panel</text>
<polyline fill="none" stroke="#000000" points="572,-47.5 704,-47.5 "/>
<polyline fill="none" stroke="#000000" points="572,-23.5 704,-23.5 "/>
<text text-anchor="start" x="580" y="-8.3" font-family="Times,serif" font-size="14.00" fill="#000000">_layout</text>
</g>
<!-- RandomsController -->
<g id="node8" class="node">
<title>RandomsController</title>
<path fill="none" stroke="#000000" d="M760,-.5C760,-.5 892,-.5 892,-.5 898,-.5 904,-6.5 904,-12.5 904,-12.5 904,-96.5 904,-96.5 904,-102.5 898,-108.5 892,-108.5 892,-108.5 760,-108.5 760,-108.5 754,-108.5 748,-102.5 748,-96.5 748,-96.5 748,-12.5 748,-12.5 748,-6.5 754,-.5 760,-.5"/>
<text text-anchor="middle" x="826" y="-93.3" font-family="Times,serif" font-size="14.00" fill="#000000">RandomsController</text>
<polyline fill="none" stroke="#000000" points="748,-85.5 904,-85.5 "/>
<text text-anchor="start" x="756" y="-70.3" font-family="Times,serif" font-size="14.00" fill="#000000">random</text>
<polyline fill="none" stroke="#000000" points="748,-62.5 904,-62.5 "/>
<polyline fill="none" stroke="#000000" points="748,-38.5 904,-38.5 "/>
<text text-anchor="start" x="756" y="-23.3" font-family="Times,serif" font-size="14.00" fill="#000000">_layout</text>
<text text-anchor="start" x="756" y="-8.3" font-family="Times,serif" font-size="14.00" fill="#000000">populateCurrency</text>
</g>
<!-- SessionsController -->
<g id="node9" class="node">
<title>SessionsController</title>
<path fill="none" stroke="#000000" d="M34,-66.5C34,-66.5 162,-66.5 162,-66.5 168,-66.5 174,-72.5 174,-78.5 174,-78.5 174,-207.5 174,-207.5 174,-213.5 168,-219.5 162,-219.5 162,-219.5 34,-219.5 34,-219.5 28,-219.5 22,-213.5 22,-207.5 22,-207.5 22,-78.5 22,-78.5 22,-72.5 28,-66.5 34,-66.5"/>
<text text-anchor="middle" x="98" y="-204.3" font-family="Times,serif" font-size="14.00" fill="#000000">SessionsController</text>
<polyline fill="none" stroke="#000000" points="22,-196.5 174,-196.5 "/>
<text text-anchor="start" x="30" y="-181.3" font-family="Times,serif" font-size="14.00" fill="#000000">create_admin</text>
<text text-anchor="start" x="30" y="-166.3" font-family="Times,serif" font-size="14.00" fill="#000000">create_user</text>
<text text-anchor="start" x="30" y="-151.3" font-family="Times,serif" font-size="14.00" fill="#000000">destroy</text>
<text text-anchor="start" x="30" y="-136.3" font-family="Times,serif" font-size="14.00" fill="#000000">new_admin</text>
<text text-anchor="start" x="30" y="-121.3" font-family="Times,serif" font-size="14.00" fill="#000000">new_user</text>
<polyline fill="none" stroke="#000000" points="22,-113.5 174,-113.5 "/>
<polyline fill="none" stroke="#000000" points="22,-89.5 174,-89.5 "/>
<text text-anchor="start" x="30" y="-74.3" font-family="Times,serif" font-size="14.00" fill="#000000">_layout</text>
</g>
<!-- TransactionsController -->
<g id="node10" class="node">
<title>TransactionsController</title>
<path fill="none" stroke="#000000" d="M584,-176.5C584,-176.5 743,-176.5 743,-176.5 749,-176.5 755,-182.5 755,-188.5 755,-188.5 755,-362.5 755,-362.5 755,-368.5 749,-374.5 743,-374.5 743,-374.5 584,-374.5 584,-374.5 578,-374.5 572,-368.5 572,-362.5 572,-362.5 572,-188.5 572,-188.5 572,-182.5 578,-176.5 584,-176.5"/>
<text text-anchor="middle" x="663.5" y="-359.3" font-family="Times,serif" font-size="14.00" fill="#000000">TransactionsController</text>
<polyline fill="none" stroke="#000000" points="572,-351.5 755,-351.5 "/>
<text text-anchor="start" x="580" y="-336.3" font-family="Times,serif" font-size="14.00" fill="#000000">create</text>
<text text-anchor="start" x="580" y="-321.3" font-family="Times,serif" font-size="14.00" fill="#000000">destroy</text>
<text text-anchor="start" x="580" y="-306.3" font-family="Times,serif" font-size="14.00" fill="#000000">index</text>
<text text-anchor="start" x="580" y="-291.3" font-family="Times,serif" font-size="14.00" fill="#000000">new</text>
<text text-anchor="start" x="580" y="-276.3" font-family="Times,serif" font-size="14.00" fill="#000000">update</text>
<polyline fill="none" stroke="#000000" points="572,-268.5 755,-268.5 "/>
<polyline fill="none" stroke="#000000" points="572,-244.5 755,-244.5 "/>
<text text-anchor="start" x="580" y="-229.3" font-family="Times,serif" font-size="14.00" fill="#000000">_layout</text>
<text text-anchor="start" x="580" y="-214.3" font-family="Times,serif" font-size="14.00" fill="#000000">get_account</text>
<text text-anchor="start" x="580" y="-199.3" font-family="Times,serif" font-size="14.00" fill="#000000">set_transaction</text>
<text text-anchor="start" x="580" y="-184.3" font-family="Times,serif" font-size="14.00" fill="#000000">transaction_params</text>
</g>
<!-- UsersController -->
<g id="node11" class="node">
<title>UsersController</title>
<path fill="none" stroke="#000000" d="M188,-264.5C188,-264.5 514,-264.5 514,-264.5 520,-264.5 526,-270.5 526,-276.5 526,-276.5 526,-495.5 526,-495.5 526,-501.5 520,-507.5 514,-507.5 514,-507.5 188,-507.5 188,-507.5 182,-507.5 176,-501.5 176,-495.5 176,-495.5 176,-276.5 176,-276.5 176,-270.5 182,-264.5 188,-264.5"/>
<text text-anchor="middle" x="351" y="-492.3" font-family="Times,serif" font-size="14.00" fill="#000000">UsersController</text>
<polyline fill="none" stroke="#000000" points="176,-484.5 526,-484.5 "/>
<text text-anchor="start" x="184" y="-469.3" font-family="Times,serif" font-size="14.00" fill="#000000">create</text>
<text text-anchor="start" x="184" y="-454.3" font-family="Times,serif" font-size="14.00" fill="#000000">delete</text>
<text text-anchor="start" x="184" y="-439.3" font-family="Times,serif" font-size="14.00" fill="#000000">destroy</text>
<text text-anchor="start" x="184" y="-424.3" font-family="Times,serif" font-size="14.00" fill="#000000">edit</text>
<text text-anchor="start" x="184" y="-409.3" font-family="Times,serif" font-size="14.00" fill="#000000">index</text>
<text text-anchor="start" x="184" y="-394.3" font-family="Times,serif" font-size="14.00" fill="#000000">new</text>
<text text-anchor="start" x="184" y="-379.3" font-family="Times,serif" font-size="14.00" fill="#000000">show</text>
<text text-anchor="start" x="184" y="-364.3" font-family="Times,serif" font-size="14.00" fill="#000000">update</text>
<polyline fill="none" stroke="#000000" points="176,-356.5 526,-356.5 "/>
<polyline fill="none" stroke="#000000" points="176,-332.5 526,-332.5 "/>
<text text-anchor="start" x="184" y="-317.3" font-family="Times,serif" font-size="14.00" fill="#000000">_layout</text>
<text text-anchor="start" x="184" y="-302.3" font-family="Times,serif" font-size="14.00" fill="#000000">redirect_to_index_if_not_current_admins_user</text>
<text text-anchor="start" x="184" y="-287.3" font-family="Times,serif" font-size="14.00" fill="#000000">redirect_to_root_if_not_logged_in_as_admin</text>
<text text-anchor="start" x="184" y="-272.3" font-family="Times,serif" font-size="14.00" fill="#000000">user_params</text>
</g>
</g>
</svg>
