<?xml version="1.0" encoding="UTF-8" standalone="no"?>
<!DOCTYPE svg PUBLIC "-//W3C//DTD SVG 1.1//EN"
 "http://www.w3.org/Graphics/SVG/1.1/DTD/svg11.dtd">
<!-- Generated by graphviz version 2.40.1 (20161225.0304)
 -->
<!-- Title: models_diagram Pages: 1 -->
<svg width="574pt" height="302pt"
 viewBox="0.00 0.00 573.84 302.00" xmlns="http://www.w3.org/2000/svg" xmlns:xlink="http://www.w3.org/1999/xlink">
<g id="graph0" class="graph" transform="scale(1 1) rotate(0) translate(4 298)">
<title>models_diagram</title>
<polygon fill="transparent" stroke="transparent" points="-4,4 -4,-298 569.8414,-298 569.8414,4 -4,4"/>
<!-- _diagram_info -->
<g id="node1" class="node">
<title>_diagram_info</title>
<text text-anchor="start" x="8" y="-279.6" font-family="Times,serif" font-size="13.00" fill="#000000">Models diagram</text>
<text text-anchor="start" x="8" y="-265.6" font-family="Times,serif" font-size="13.00" fill="#000000">Date: Dec 16 2020 &#45; 00:38</text>
<text text-anchor="start" x="8" y="-251.6" font-family="Times,serif" font-size="13.00" fill="#000000">Migration version: 20201209001115</text>
<text text-anchor="start" x="8" y="-237.6" font-family="Times,serif" font-size="13.00" fill="#000000">Generated by RailRoady 1.5.3</text>
<text text-anchor="start" x="8" y="-223.6" font-family="Times,serif" font-size="13.00" fill="#000000">http://railroady.prestonlee.com</text>
</g>
<!-- Admin -->
<g id="node2" class="node">
<title>Admin</title>
<ellipse fill="none" stroke="#000000" cx="313" cy="-255" rx="40.8928" ry="18"/>
<text text-anchor="middle" x="313" y="-251.3" font-family="Times,serif" font-size="14.00" fill="#000000">Admin</text>
</g>
<!-- User -->
<g id="node7" class="node">
<title>User</title>
<ellipse fill="none" stroke="#000000" cx="313" cy="-162" rx="33.2948" ry="18"/>
<text text-anchor="middle" x="313" y="-158.3" font-family="Times,serif" font-size="14.00" fill="#000000">User</text>
</g>
<!-- Admin&#45;&gt;User -->
<g id="edge1" class="edge">
<title>Admin&#45;&gt;User</title>
<path fill="none" stroke="#fa428f" d="M313,-228.4432C313,-216.4479 313,-202.268 313,-190.0949"/>
<ellipse fill="none" stroke="#fa428f" cx="313" cy="-232.6262" rx="4" ry="4"/>
<polygon fill="#fa428f" stroke="#fa428f" points="313.0001,-190.0192 317.5,-180.0191 313,-185.0192 313,-180.0192 313,-180.0192 313,-180.0192 313,-185.0192 308.5,-180.0192 313.0001,-190.0192 313.0001,-190.0192"/>
</g>
<!-- ApplicationRecord -->
<g id="node3" class="node">
<title>ApplicationRecord</title>
<ellipse fill="none" stroke="#000000" cx="469" cy="-255" rx="96.6831" ry="18"/>
<text text-anchor="middle" x="469" y="-251.3" font-family="Times,serif" font-size="14.00" fill="#000000">ApplicationRecord</text>
</g>
<!-- BankAccount -->
<g id="node4" class="node">
<title>BankAccount</title>
<ellipse fill="none" stroke="#000000" cx="240" cy="-90" rx="73.387" ry="18"/>
<text text-anchor="middle" x="240" y="-86.3" font-family="Times,serif" font-size="14.00" fill="#000000">BankAccount</text>
</g>
<!-- Transaction -->
<g id="node6" class="node">
<title>Transaction</title>
<ellipse fill="none" stroke="#000000" cx="240" cy="-18" rx="66.0889" ry="18"/>
<text text-anchor="middle" x="240" y="-14.3" font-family="Times,serif" font-size="14.00" fill="#000000">Transaction</text>
</g>
<!-- BankAccount&#45;&gt;Transaction -->
<g id="edge2" class="edge">
<title>BankAccount&#45;&gt;Transaction</title>
<path fill="none" stroke="#68e43f" d="M240,-63.8144C240,-58.2775 240,-52.4053 240,-46.7785"/>
<ellipse fill="none" stroke="#68e43f" cx="240" cy="-67.8314" rx="4" ry="4"/>
<polygon fill="#68e43f" stroke="#68e43f" points="240.0001,-46.4133 244.5,-36.4132 240,-41.4133 240,-36.4133 240,-36.4133 240,-36.4133 240,-41.4133 235.5,-36.4133 240.0001,-46.4133 240.0001,-46.4133"/>
</g>
<!-- Currency -->
<g id="node5" class="node">
<title>Currency</title>
<ellipse fill="none" stroke="#000000" cx="386" cy="-90" rx="54.6905" ry="18"/>
<text text-anchor="middle" x="386" y="-86.3" font-family="Times,serif" font-size="14.00" fill="#000000">Currency</text>
</g>
<!-- User&#45;&gt;BankAccount -->
<g id="edge3" class="edge">
<title>User&#45;&gt;BankAccount</title>
<path fill="none" stroke="#c31986" d="M290.8486,-140.1521C282.7829,-132.1969 273.6055,-123.1451 265.2882,-114.9418"/>
<ellipse fill="none" stroke="#c31986" cx="293.9511" cy="-143.212" rx="4" ry="4"/>
<polygon fill="#c31986" stroke="#c31986" points="265.0681,-114.7247 261.1084,-104.4987 261.5082,-111.2136 257.9484,-107.7025 257.9484,-107.7025 257.9484,-107.7025 261.5082,-111.2136 254.7884,-110.9064 265.0681,-114.7247 265.0681,-114.7247"/>
</g>
<!-- User&#45;&gt;Currency -->
<g id="edge4" class="edge">
<title>User&#45;&gt;Currency</title>
<path fill="none" stroke="#502976" d="M334.9425,-140.3581C343.6871,-131.7333 353.7649,-121.7935 362.6447,-113.0354"/>
<ellipse fill="none" stroke="#502976" cx="332.0489" cy="-143.212" rx="4" ry="4"/>
<ellipse fill="#502976" stroke="#502976" cx="365.7219" cy="-110.0003" rx="4" ry="4"/>
</g>
</g>
</svg>
