<?xml version="1.0" encoding="UTF-8" standalone="no"?>
<!DOCTYPE svg PUBLIC "-//W3C//DTD SVG 1.1//EN"
 "http://www.w3.org/Graphics/SVG/1.1/DTD/svg11.dtd">
<!-- Generated by graphviz version 2.40.1 (20161225.0304)
 -->
<!-- Title: models_diagram Pages: 1 -->
<svg width="827pt" height="754pt"
 viewBox="0.00 0.00 826.84 754.00" xmlns="http://www.w3.org/2000/svg" xmlns:xlink="http://www.w3.org/1999/xlink">
<g id="graph0" class="graph" transform="scale(1 1) rotate(0) translate(4 750)">
<title>models_diagram</title>
<polygon fill="transparent" stroke="transparent" points="-4,4 -4,-750 822.8414,-750 822.8414,4 -4,4"/>
<!-- _diagram_info -->
<g id="node1" class="node">
<title>_diagram_info</title>
<text text-anchor="start" x="8" y="-709.6" font-family="Times,serif" font-size="13.00" fill="#000000">Models diagram</text>
<text text-anchor="start" x="8" y="-695.6" font-family="Times,serif" font-size="13.00" fill="#000000">Date: Dec 16 2020 &#45; 00:38</text>
<text text-anchor="start" x="8" y="-681.6" font-family="Times,serif" font-size="13.00" fill="#000000">Migration version: 20201209001115</text>
<text text-anchor="start" x="8" y="-667.6" font-family="Times,serif" font-size="13.00" fill="#000000">Generated by RailRoady 1.5.3</text>
<text text-anchor="start" x="8" y="-653.6" font-family="Times,serif" font-size="13.00" fill="#000000">http://railroady.prestonlee.com</text>
</g>
<!-- Admin -->
<g id="node2" class="node">
<title>Admin</title>
<path fill="none" stroke="#000000" d="M284.5,-624.5C284.5,-624.5 595.5,-624.5 595.5,-624.5 601.5,-624.5 607.5,-630.5 607.5,-636.5 607.5,-636.5 607.5,-733.5 607.5,-733.5 607.5,-739.5 601.5,-745.5 595.5,-745.5 595.5,-745.5 284.5,-745.5 284.5,-745.5 278.5,-745.5 272.5,-739.5 272.5,-733.5 272.5,-733.5 272.5,-636.5 272.5,-636.5 272.5,-630.5 278.5,-624.5 284.5,-624.5"/>
<text text-anchor="middle" x="440" y="-730.3" font-family="Times,serif" font-size="14.00" fill="#000000">Admin</text>
<polyline fill="none" stroke="#000000" points="272.5,-722.5 607.5,-722.5 "/>
<text text-anchor="start" x="280.5" y="-707.3" font-family="Times,serif" font-size="14.00" fill="#000000">id :bigint</text>
<text text-anchor="start" x="280.5" y="-692.3" font-family="Times,serif" font-size="14.00" fill="#000000">username :character varying</text>
<text text-anchor="start" x="280.5" y="-677.3" font-family="Times,serif" font-size="14.00" fill="#000000">email :character varying</text>
<text text-anchor="start" x="280.5" y="-662.3" font-family="Times,serif" font-size="14.00" fill="#000000">password_digest :character varying</text>
<text text-anchor="start" x="280.5" y="-647.3" font-family="Times,serif" font-size="14.00" fill="#000000">created_at :timestamp(6) without time zone</text>
<text text-anchor="start" x="280.5" y="-632.3" font-family="Times,serif" font-size="14.00" fill="#000000">updated_at :timestamp(6) without time zone</text>
</g>
<!-- User -->
<g id="node7" class="node">
<title>User</title>
<path fill="none" stroke="#000000" d="M283,-391.5C283,-391.5 597,-391.5 597,-391.5 603,-391.5 609,-397.5 609,-403.5 609,-403.5 609,-575.5 609,-575.5 609,-581.5 603,-587.5 597,-587.5 597,-587.5 283,-587.5 283,-587.5 277,-587.5 271,-581.5 271,-575.5 271,-575.5 271,-403.5 271,-403.5 271,-397.5 277,-391.5 283,-391.5"/>
<text text-anchor="middle" x="440" y="-572.3" font-family="Times,serif" font-size="14.00" fill="#000000">User</text>
<polyline fill="none" stroke="#000000" points="271,-564.5 609,-564.5 "/>
<text text-anchor="start" x="279" y="-549.3" font-family="Times,serif" font-size="14.00" fill="#000000">id :bigint</text>
<text text-anchor="start" x="279" y="-534.3" font-family="Times,serif" font-size="14.00" fill="#000000">admin_id :bigint</text>
<text text-anchor="start" x="279" y="-519.3" font-family="Times,serif" font-size="14.00" fill="#000000">currency_id :integer</text>
<text text-anchor="start" x="279" y="-504.3" font-family="Times,serif" font-size="14.00" fill="#000000">first_name :character varying</text>
<text text-anchor="start" x="279" y="-489.3" font-family="Times,serif" font-size="14.00" fill="#000000">middle_name :character varying</text>
<text text-anchor="start" x="279" y="-474.3" font-family="Times,serif" font-size="14.00" fill="#000000">last_name :character varying</text>
<text text-anchor="start" x="279" y="-459.3" font-family="Times,serif" font-size="14.00" fill="#000000">email :character varying</text>
<text text-anchor="start" x="279" y="-444.3" font-family="Times,serif" font-size="14.00" fill="#000000">password_digest :character varying</text>
<text text-anchor="start" x="279" y="-429.3" font-family="Times,serif" font-size="14.00" fill="#000000">created_at :timestamp(6) without time zone</text>
<text text-anchor="start" x="279" y="-414.3" font-family="Times,serif" font-size="14.00" fill="#000000">updated_at :timestamp(6) without time zone</text>
<text text-anchor="start" x="279" y="-399.3" font-family="Times,serif" font-size="14.00" fill="#000000">last_logged_in :timestamp without time zone</text>
</g>
<!-- Admin&#45;&gt;User -->
<g id="edge1" class="edge">
<title>Admin&#45;&gt;User</title>
<path fill="none" stroke="#06b146" d="M440,-616.4359C440,-610.4915 440,-604.3884 440,-598.2265"/>
<ellipse fill="none" stroke="#06b146" cx="440" cy="-620.4814" rx="4" ry="4"/>
<polygon fill="#06b146" stroke="#06b146" points="440.0001,-597.8183 444.5,-587.8182 440,-592.8183 440,-587.8183 440,-587.8183 440,-587.8183 440,-592.8183 435.5,-587.8183 440.0001,-597.8183 440.0001,-597.8183"/>
</g>
<!-- ApplicationRecord -->
<g id="node3" class="node">
<title>ApplicationRecord</title>
<ellipse fill="none" stroke="#000000" cx="722" cy="-685" rx="96.6831" ry="18"/>
<text text-anchor="middle" x="722" y="-681.3" font-family="Times,serif" font-size="14.00" fill="#000000">ApplicationRecord</text>
</g>
<!-- BankAccount -->
<g id="node4" class="node">
<title>BankAccount</title>
<path fill="none" stroke="#000000" d="M108.5,-203.5C108.5,-203.5 419.5,-203.5 419.5,-203.5 425.5,-203.5 431.5,-209.5 431.5,-215.5 431.5,-215.5 431.5,-342.5 431.5,-342.5 431.5,-348.5 425.5,-354.5 419.5,-354.5 419.5,-354.5 108.5,-354.5 108.5,-354.5 102.5,-354.5 96.5,-348.5 96.5,-342.5 96.5,-342.5 96.5,-215.5 96.5,-215.5 96.5,-209.5 102.5,-203.5 108.5,-203.5"/>
<text text-anchor="middle" x="264" y="-339.3" font-family="Times,serif" font-size="14.00" fill="#000000">BankAccount</text>
<polyline fill="none" stroke="#000000" points="96.5,-331.5 431.5,-331.5 "/>
<text text-anchor="start" x="104.5" y="-316.3" font-family="Times,serif" font-size="14.00" fill="#000000">id :bigint</text>
<text text-anchor="start" x="104.5" y="-301.3" font-family="Times,serif" font-size="14.00" fill="#000000">user_id :bigint</text>
<text text-anchor="start" x="104.5" y="-286.3" font-family="Times,serif" font-size="14.00" fill="#000000">account_name :character varying</text>
<text text-anchor="start" x="104.5" y="-271.3" font-family="Times,serif" font-size="14.00" fill="#000000">account_number :character varying</text>
<text text-anchor="start" x="104.5" y="-256.3" font-family="Times,serif" font-size="14.00" fill="#000000">sort_code :character varying</text>
<text text-anchor="start" x="104.5" y="-241.3" font-family="Times,serif" font-size="14.00" fill="#000000">created_at :timestamp(6) without time zone</text>
<text text-anchor="start" x="104.5" y="-226.3" font-family="Times,serif" font-size="14.00" fill="#000000">updated_at :timestamp(6) without time zone</text>
<text text-anchor="start" x="104.5" y="-211.3" font-family="Times,serif" font-size="14.00" fill="#000000">interest_rate :numeric</text>
</g>
<!-- Transaction -->
<g id="node6" class="node">
<title>Transaction</title>
<path fill="none" stroke="#000000" d="M108.5,-.5C108.5,-.5 419.5,-.5 419.5,-.5 425.5,-.5 431.5,-6.5 431.5,-12.5 431.5,-12.5 431.5,-154.5 431.5,-154.5 431.5,-160.5 425.5,-166.5 419.5,-166.5 419.5,-166.5 108.5,-166.5 108.5,-166.5 102.5,-166.5 96.5,-160.5 96.5,-154.5 96.5,-154.5 96.5,-12.5 96.5,-12.5 96.5,-6.5 102.5,-.5 108.5,-.5"/>
<text text-anchor="middle" x="264" y="-151.3" font-family="Times,serif" font-size="14.00" fill="#000000">Transaction</text>
<polyline fill="none" stroke="#000000" points="96.5,-143.5 431.5,-143.5 "/>
<text text-anchor="start" x="104.5" y="-128.3" font-family="Times,serif" font-size="14.00" fill="#000000">id :bigint</text>
<text text-anchor="start" x="104.5" y="-113.3" font-family="Times,serif" font-size="14.00" fill="#000000">bank_account_id :bigint</text>
<text text-anchor="start" x="104.5" y="-98.3" font-family="Times,serif" font-size="14.00" fill="#000000">date :text</text>
<text text-anchor="start" x="104.5" y="-83.3" font-family="Times,serif" font-size="14.00" fill="#000000">description :text</text>
<text text-anchor="start" x="104.5" y="-68.3" font-family="Times,serif" font-size="14.00" fill="#000000">reference :character varying</text>
<text text-anchor="start" x="104.5" y="-53.3" font-family="Times,serif" font-size="14.00" fill="#000000">money_in :numeric</text>
<text text-anchor="start" x="104.5" y="-38.3" font-family="Times,serif" font-size="14.00" fill="#000000">money_out :numeric</text>
<text text-anchor="start" x="104.5" y="-23.3" font-family="Times,serif" font-size="14.00" fill="#000000">created_at :timestamp(6) without time zone</text>
<text text-anchor="start" x="104.5" y="-8.3" font-family="Times,serif" font-size="14.00" fill="#000000">updated_at :timestamp(6) without time zone</text>
</g>
<!-- BankAccount&#45;&gt;Transaction -->
<g id="edge2" class="edge">
<title>BankAccount&#45;&gt;Transaction</title>
<path fill="none" stroke="#6c3847" d="M264,-195.1713C264,-189.1222 264,-183.0006 264,-176.9015"/>
<ellipse fill="none" stroke="#6c3847" cx="264" cy="-199.4146" rx="4" ry="4"/>
<polygon fill="#6c3847" stroke="#6c3847" points="264.0001,-176.6754 268.5,-166.6753 264,-171.6754 264,-166.6754 264,-166.6754 264,-166.6754 264,-171.6754 259.5,-166.6754 264.0001,-176.6754 264.0001,-176.6754"/>
</g>
<!-- Currency -->
<g id="node5" class="node">
<title>Currency</title>
<path fill="none" stroke="#000000" d="M461.5,-218.5C461.5,-218.5 772.5,-218.5 772.5,-218.5 778.5,-218.5 784.5,-224.5 784.5,-230.5 784.5,-230.5 784.5,-327.5 784.5,-327.5 784.5,-333.5 778.5,-339.5 772.5,-339.5 772.5,-339.5 461.5,-339.5 461.5,-339.5 455.5,-339.5 449.5,-333.5 449.5,-327.5 449.5,-327.5 449.5,-230.5 449.5,-230.5 449.5,-224.5 455.5,-218.5 461.5,-218.5"/>
<text text-anchor="middle" x="617" y="-324.3" font-family="Times,serif" font-size="14.00" fill="#000000">Currency</text>
<polyline fill="none" stroke="#000000" points="449.5,-316.5 784.5,-316.5 "/>
<text text-anchor="start" x="457.5" y="-301.3" font-family="Times,serif" font-size="14.00" fill="#000000">id :bigint</text>
<text text-anchor="start" x="457.5" y="-286.3" font-family="Times,serif" font-size="14.00" fill="#000000">code :character varying</text>
<text text-anchor="start" x="457.5" y="-271.3" font-family="Times,serif" font-size="14.00" fill="#000000">rate_to_gbp :numeric</text>
<text text-anchor="start" x="457.5" y="-256.3" font-family="Times,serif" font-size="14.00" fill="#000000">created_at :timestamp(6) without time zone</text>
<text text-anchor="start" x="457.5" y="-241.3" font-family="Times,serif" font-size="14.00" fill="#000000">updated_at :timestamp(6) without time zone</text>
<text text-anchor="start" x="457.5" y="-226.3" font-family="Times,serif" font-size="14.00" fill="#000000">symbol :character varying</text>
</g>
<!-- User&#45;&gt;BankAccount -->
<g id="edge3" class="edge">
<title>User&#45;&gt;BankAccount</title>
<path fill="none" stroke="#e6d4cc" d="M352.6049,-384.9735C346.3248,-377.4623 340.0406,-369.9462 333.8802,-362.5783"/>
<ellipse fill="none" stroke="#e6d4cc" cx="355.3599" cy="-388.2686" rx="4" ry="4"/>
<polygon fill="#e6d4cc" stroke="#e6d4cc" points="333.6645,-362.3204 330.7024,-351.7621 330.4573,-358.4845 327.2501,-354.6486 327.2501,-354.6486 327.2501,-354.6486 330.4573,-358.4845 323.7978,-357.5351 333.6645,-362.3204 333.6645,-362.3204"/>
</g>
<!-- User&#45;&gt;Currency -->
<g id="edge4" class="edge">
<title>User&#45;&gt;Currency</title>
<path fill="none" stroke="#eb8c9d" d="M527.7435,-385.1497C538.8772,-371.9087 550.0269,-358.6487 560.4877,-346.2081"/>
<ellipse fill="none" stroke="#eb8c9d" cx="525.115" cy="-388.2757" rx="4" ry="4"/>
<ellipse fill="#eb8c9d" stroke="#eb8c9d" cx="563.3172" cy="-342.8431" rx="4" ry="4"/>
</g>
</g>
</svg>
